<svg width="264" height="31" viewBox="0 0 264 31" fill="none" xmlns="http://www.w3.org/2000/svg">
    <path fill-rule="evenodd" clip-rule="evenodd"
          d="M0 18.7381V0.616821H11.0984V2.46713H1.96457V8.72293H9.98412V10.6173H1.96457V18.7381H0Z" fill="#2BAAE2"/>
    <path fill-rule="evenodd" clip-rule="evenodd"
          d="M13.6348 15.4633C13.2536 14.4941 13.063 13.3193 13.063 11.9389C13.063 10.5586 13.2536 9.38375 13.6348 8.41455C14.016 7.44534 14.5291 6.72577 15.1888 6.24117C15.8486 5.75656 16.5083 5.41881 17.1827 5.2279C17.8571 5.02231 18.6048 4.9342 19.4258 4.9342C20.2469 4.9342 20.9946 5.037 21.6836 5.2279C22.3727 5.43349 23.0324 5.77125 23.6922 6.24117C24.3519 6.72577 24.8651 7.44534 25.2462 8.41455C25.6274 9.38375 25.818 10.5586 25.818 11.9389C25.818 13.3193 25.6274 14.4941 25.2462 15.4633C24.8651 16.4325 24.3519 17.1521 23.6922 17.6367C23.0324 18.1213 22.3727 18.4591 21.6836 18.65C20.9946 18.8556 20.2469 18.9437 19.4258 18.9437C18.6048 18.9437 17.8571 18.8409 17.1827 18.65C16.5083 18.4444 15.8486 18.1066 15.1888 17.6367C14.5291 17.1521 14.016 16.4325 13.6348 15.4633ZM16.0685 7.974C15.3648 8.81104 15.0276 10.1327 15.0276 11.9389C15.0276 13.7452 15.3794 15.0668 16.0685 15.9039C16.7722 16.7409 17.8864 17.1521 19.4258 17.1521C20.9652 17.1521 22.0795 16.7409 22.7832 15.9186C23.4869 15.0962 23.8388 13.7746 23.8388 11.9389C23.8388 10.1033 23.4869 8.78167 22.7832 7.95931C22.0795 7.13695 20.9652 6.72577 19.4258 6.72577C17.8864 6.72577 16.7722 7.13695 16.0685 7.974Z"
          fill="#2BAAE2"/>
    <path fill-rule="evenodd" clip-rule="evenodd"
          d="M29.0142 18.738V6.25574C31.052 5.40401 33.2365 4.97815 35.5823 4.97815V6.82846C34.1015 6.85783 32.5621 7.09279 30.9787 7.53334V18.7527H29.0142"
          fill="#2BAAE2"/>
    <path fill-rule="evenodd" clip-rule="evenodd"
          d="M37.6641 6.97542V5.18385H40.0245V1.35107H41.989V5.18385H45.4784V6.97542H41.989V15.2431C41.989 15.9333 42.1357 16.4179 42.4142 16.6969C42.7074 16.9759 43.2059 17.1081 43.9243 17.1081C44.4814 17.1081 44.9945 17.0053 45.4784 16.785V18.6353C44.9066 18.8409 44.3348 18.9584 43.763 18.9584H43.6897C43.3232 18.9584 42.9713 18.9143 42.6341 18.8409C42.2969 18.7675 41.9011 18.6059 41.4613 18.371C41.0361 18.136 40.6842 17.7395 40.4203 17.1962C40.1564 16.6381 40.0245 15.9626 40.0245 15.1403V6.97542H37.6641Z"
          fill="#2BAAE2"/>
    <path fill-rule="evenodd" clip-rule="evenodd"
          d="M48.6157 14.6703V0H50.5803V5.49218C51.6652 5.12506 52.7795 4.93415 53.9084 4.93415C54.5241 4.93415 55.1106 4.99289 55.653 5.09569C56.1955 5.19848 56.7526 5.40407 57.3097 5.72714C57.8668 6.03553 58.3506 6.43202 58.7611 6.91663C59.1716 7.40123 59.4942 8.06206 59.7434 8.8991C59.9927 9.73614 60.1246 10.7054 60.1246 11.792C60.1246 12.9815 59.978 14.0242 59.6994 14.9199C59.4209 15.8157 59.0837 16.5059 58.6732 17.0052C58.2627 17.5045 57.7789 17.901 57.2071 18.2094C56.6353 18.5178 56.1075 18.7234 55.6237 18.8115C55.1399 18.8996 54.6561 18.9436 54.1429 18.9436C53.1606 18.9436 52.3103 18.8261 51.5773 18.5765C50.8589 18.3269 50.3164 18.0478 49.9499 17.7395C49.5834 17.4164 49.2902 17.0346 49.0702 16.594C48.8503 16.1535 48.7037 15.7864 48.6597 15.5073C48.6157 15.2136 48.5864 14.9346 48.5864 14.6703H48.6157ZM50.5803 14.7731C50.5803 16.3591 51.7825 17.1521 54.1576 17.1521C54.6561 17.1521 55.1106 17.0933 55.5211 16.9758C55.9316 16.8584 56.3421 16.6381 56.7819 16.3003C57.2217 15.9626 57.5589 15.4192 57.7935 14.6409C58.0281 13.8773 58.16 12.9228 58.16 11.7774C58.16 10.0152 57.8228 8.75225 57.1484 7.95926C56.474 7.16627 55.3891 6.76978 53.8937 6.76978C52.7795 6.76978 51.6652 6.99005 50.5657 7.44529V14.7584L50.5803 14.7731Z"
          fill="#2BAAE2"/>
    <path fill-rule="evenodd" clip-rule="evenodd"
          d="M63.7017 0.616821H65.8715V2.7902H63.7017V0.616821ZM63.8043 18.7381H65.7689V5.18385H63.8043V18.7381Z"
          fill="#2BAAE2"/>
    <path fill-rule="evenodd" clip-rule="evenodd" d="M70.2407 0.0146484H72.2053V18.738H70.2407V0.0146484Z"
          fill="#2BAAE2"/>
    <path fill-rule="evenodd" clip-rule="evenodd"
          d="M75.9146 11.792C75.9146 10.441 76.0905 9.31024 76.457 8.35572C76.8235 7.41588 77.322 6.711 77.9671 6.24108C78.6122 5.77116 79.2573 5.44809 79.917 5.25719C80.5767 5.06628 81.3098 4.97817 82.1015 4.97817C83.289 4.97817 84.4179 5.15439 85.4589 5.49215V0.0146484H87.4234V14.6849C87.4234 15.0521 87.3648 15.4192 87.2622 15.801C87.1595 16.1828 86.9396 16.638 86.6024 17.1667C86.2652 17.6954 85.6934 18.1212 84.8724 18.459C84.0514 18.7967 83.0545 18.9583 81.8669 18.9583C81.3684 18.9583 80.87 18.9142 80.3862 18.8261C79.9023 18.738 79.3892 18.5324 78.8174 18.224C78.2603 17.9156 77.7765 17.5191 77.366 17.0199C76.9555 16.5206 76.6183 15.8304 76.3251 14.9346C76.0465 14.0388 75.8999 12.9962 75.8999 11.792H75.9146ZM77.8791 11.792C77.8791 12.9374 77.9964 13.892 78.2457 14.6556C78.4949 15.4192 78.8321 15.9772 79.2573 16.315C79.6824 16.6527 80.1076 16.873 80.5034 16.9905C80.8993 17.108 81.3538 17.1667 81.8669 17.1667C84.2567 17.1667 85.4589 16.3737 85.4589 14.7731V7.43056C84.3593 6.97533 83.2304 6.75506 82.1015 6.75506C80.6207 6.75506 79.5505 7.15155 78.8761 7.94454C78.2017 8.73753 77.8645 10.0151 77.8645 11.7773L77.8791 11.792Z"
          fill="#2BAAE2"/>
    <path fill-rule="evenodd" clip-rule="evenodd"
          d="M91.4844 13.0403V5.18384H93.4489V13.1284C93.4489 14.5088 93.7422 15.5074 94.3433 16.1535C94.9444 16.7997 95.8827 17.108 97.1582 17.108C98.4337 17.108 99.3573 16.785 99.9584 16.1535C100.56 15.5074 100.867 14.5088 100.867 13.1284V5.18384H102.832V13.0403C102.832 14.92 102.333 16.3885 101.351 17.4164C100.369 18.4444 98.9615 18.9584 97.1582 18.9584C95.3549 18.9584 93.9474 18.4444 92.9651 17.4164C91.9828 16.3885 91.4844 14.9347 91.4844 13.0403Z"
          fill="#2BAAE2"/>
    <path fill-rule="evenodd" clip-rule="evenodd"
          d="M106.805 18.7381V6.2705C108.579 5.3894 110.485 4.94885 112.538 4.94885C114.238 4.94885 115.558 5.37472 116.496 6.24113C117.434 7.10755 117.904 8.3264 117.904 9.89769V18.7381H115.939V9.89769C115.939 9.51588 115.895 9.17813 115.822 8.88443C115.748 8.59073 115.587 8.26766 115.353 7.9299C115.118 7.59215 114.751 7.3425 114.238 7.1516C113.725 6.97538 113.08 6.87259 112.303 6.87259C111.16 6.87259 109.987 7.04881 108.74 7.41593V18.7234H106.776"
          fill="#2BAAE2"/>
    <path fill-rule="evenodd" clip-rule="evenodd"
          d="M121.496 11.8948C121.496 10.485 121.686 9.28087 122.067 8.28229C122.449 7.2984 122.962 6.57884 123.592 6.1236C124.237 5.66837 124.838 5.35998 125.425 5.18376C126.011 5.00754 126.612 4.91943 127.243 4.91943C128.401 4.91943 129.369 5.08097 130.16 5.40404C130.952 5.72711 131.494 6.13829 131.817 6.65226C132.139 7.16624 132.345 7.60679 132.462 7.97391C132.579 8.34103 132.623 8.70816 132.623 9.07528V19.296C132.623 19.8981 132.535 20.4561 132.359 20.9554C132.183 21.4547 131.905 21.954 131.509 22.4386C131.113 22.9232 130.512 23.2903 129.691 23.5694C128.87 23.8337 127.888 23.9805 126.73 23.9805C125.469 23.9805 124.179 23.819 122.874 23.4959V21.6456C124.032 21.9687 125.249 22.1302 126.51 22.1302C127.375 22.1302 128.093 22.0568 128.679 21.8953C129.266 21.7337 129.691 21.5135 129.955 21.2345C130.219 20.9408 130.395 20.6617 130.497 20.3827C130.6 20.1037 130.644 19.766 130.644 19.3695V18.0184C129.632 18.3415 128.577 18.5177 127.477 18.5177C126.876 18.5177 126.319 18.4737 125.791 18.3709C125.263 18.2681 124.736 18.0625 124.193 17.7688C123.651 17.4751 123.182 17.0786 122.8 16.594C122.405 16.1094 122.097 15.4779 121.847 14.6849C121.598 13.892 121.481 12.9668 121.481 11.9095L121.496 11.8948ZM123.46 11.8948C123.46 12.9081 123.563 13.7451 123.783 14.4059C124.003 15.0668 124.311 15.5514 124.736 15.8744C125.161 16.1975 125.571 16.4031 125.997 16.5059C126.422 16.6087 126.92 16.6674 127.492 16.6674C128.577 16.6674 129.632 16.4618 130.659 16.0507V9.01654C130.659 7.48931 129.515 6.74037 127.243 6.74037C126.759 6.74037 126.334 6.79911 125.953 6.91659C125.571 7.03407 125.176 7.25435 124.765 7.57742C124.355 7.90049 124.032 8.42914 123.797 9.16339C123.563 9.89764 123.46 10.8081 123.46 11.8948Z"
          fill="#2BAAE2"/>
    <path fill-rule="evenodd" clip-rule="evenodd"
          d="M135.511 8.8551C135.511 7.76841 135.907 6.84325 136.699 6.07963C137.49 5.31601 138.693 4.9342 140.32 4.9342C141.478 4.9342 142.636 5.21322 143.795 5.75656V7.70967C142.768 7.0929 141.669 6.78451 140.54 6.78451C138.502 6.78451 137.476 7.47471 137.476 8.8551C137.476 9.32501 137.725 9.70682 138.224 9.98584C138.722 10.2795 139.323 10.5145 140.041 10.7054C140.76 10.8963 141.478 11.1313 142.182 11.3956C142.9 11.6599 143.501 12.1152 144 12.7466C144.498 13.3781 144.748 14.1857 144.748 15.1696C144.748 16.3444 144.308 17.2696 143.428 17.9451C142.548 18.6059 141.332 18.9437 139.778 18.9437C138.224 18.9437 136.919 18.6059 135.687 17.9157V15.8451C136.992 16.6381 138.326 17.0346 139.704 17.0346C141.757 17.0346 142.798 16.4032 142.798 15.155C142.798 14.4794 142.548 13.9508 142.05 13.569C141.552 13.1872 140.95 12.9082 140.232 12.7172C139.514 12.5263 138.795 12.3208 138.092 12.0858C137.373 11.8655 136.772 11.4837 136.274 10.9404C135.775 10.4117 135.526 9.70682 135.526 8.84041"
          fill="#2BAAE2"/>
    <path fill-rule="evenodd" clip-rule="evenodd"
          d="M146.302 18.7381L153.515 0.616821H155.465L162.663 18.7381H160.567L158.397 13.055H150.597L148.428 18.7381H146.302ZM151.316 11.2194H157.664L154.497 2.92236L151.316 11.2194Z"
          fill="#F15B27"/>
    <path fill-rule="evenodd" clip-rule="evenodd"
          d="M165.771 18.738V0.0146484H167.736V11.8361L173.82 5.18376H176.474L170.698 11.4102L177.222 18.7527H174.612L169.437 12.7906L167.751 14.6262V18.7527H165.786"
          fill="#F15B27"/>
    <path fill-rule="evenodd" clip-rule="evenodd"
          d="M178.659 14.5675C178.659 13.9654 178.776 13.4074 178.996 12.9228C179.216 12.4382 179.494 12.0417 179.817 11.748C180.139 11.4543 180.565 11.19 181.063 10.9844C181.562 10.7641 182.016 10.6173 182.397 10.5145C182.793 10.4117 183.248 10.3382 183.775 10.2795C184.303 10.2208 184.684 10.1914 184.919 10.1914C185.139 10.1914 185.417 10.1914 185.725 10.1914L187.895 10.3236C187.895 9.09002 187.558 8.20892 186.898 7.69494C186.238 7.16628 185.241 6.90196 183.937 6.90196C182.471 6.90196 181.151 7.12223 179.978 7.54809V5.65373C181.312 5.18381 182.661 4.94885 184.039 4.94885C185.931 4.94885 187.382 5.43346 188.379 6.38798C189.376 7.3425 189.874 8.75226 189.874 10.6026V14.6703C189.874 15.5367 189.669 16.271 189.273 16.8877C188.877 17.5045 188.35 17.9451 187.719 18.2241C187.089 18.5031 186.502 18.694 185.945 18.7968C185.388 18.8996 184.846 18.9583 184.318 18.9583C183.907 18.9583 183.482 18.929 183.042 18.8849C182.602 18.8262 182.104 18.7087 181.562 18.5178C181.004 18.3269 180.535 18.0772 180.125 17.7835C179.714 17.4898 179.377 17.064 179.084 16.5059C178.791 15.9479 178.659 15.3165 178.659 14.5822V14.5675ZM180.623 14.5675C180.623 16.2563 181.855 17.108 184.303 17.108H184.347C186.737 17.108 187.939 16.2857 187.939 14.6556V12.0564C187.338 11.9536 186.532 11.8949 185.535 11.8949C182.265 11.8949 180.623 12.7906 180.623 14.5675Z"
          fill="#F15B27"/>
    <path fill-rule="evenodd" clip-rule="evenodd"
          d="M192.909 11.792C192.909 10.441 193.085 9.31024 193.452 8.35572C193.818 7.41588 194.317 6.711 194.962 6.24108C195.607 5.77116 196.252 5.44809 196.912 5.25719C197.571 5.06628 198.304 4.97817 199.096 4.97817C200.284 4.97817 201.413 5.15439 202.453 5.49215V0.0146484H204.418V14.6849C204.418 15.0521 204.359 15.4192 204.257 15.801C204.154 16.1828 203.934 16.638 203.597 17.1667C203.26 17.6954 202.688 18.1212 201.867 18.459C201.061 18.7967 200.049 18.9583 198.862 18.9583C198.363 18.9583 197.865 18.9142 197.381 18.8261C196.897 18.738 196.384 18.5324 195.812 18.224C195.255 17.9156 194.771 17.5191 194.361 17.0199C193.95 16.5206 193.613 15.8304 193.32 14.9346C193.041 14.0388 192.895 12.9962 192.895 11.792H192.909ZM194.874 11.792C194.874 12.9374 194.991 13.892 195.24 14.6556C195.49 15.4192 195.827 15.9772 196.252 16.315C196.677 16.6527 197.102 16.873 197.498 16.9905C197.894 17.108 198.348 17.1667 198.862 17.1667C201.251 17.1667 202.453 16.3737 202.453 14.7731V7.43056C201.354 6.97533 200.225 6.75506 199.096 6.75506C197.615 6.75506 196.545 7.15155 195.871 7.94454C195.196 8.73753 194.859 10.0151 194.859 11.7773L194.874 11.792Z"
          fill="#F15B27"/>
    <path fill-rule="evenodd" clip-rule="evenodd"
          d="M207.599 12.1298V11.9243C207.599 7.26912 209.578 4.9342 213.522 4.9342C214.343 4.9342 215.091 5.06637 215.765 5.3307C216.44 5.59503 216.967 5.90341 217.363 6.25585C217.759 6.60829 218.111 7.07821 218.404 7.63624C218.697 8.20896 218.917 8.69356 219.049 9.09005C219.181 9.48655 219.269 9.97115 219.343 10.5292C219.416 11.0725 219.445 11.425 219.445 11.5571V12.1445L219.387 13.0991H209.549C209.666 14.4648 210.091 15.4487 210.795 16.0654C211.499 16.6822 212.555 16.9906 213.947 16.9906C215.912 16.9906 217.451 16.6528 218.58 15.9773V17.9892C217.275 18.6206 215.692 18.929 213.845 18.929H213.771C212.98 18.929 212.247 18.8409 211.587 18.65C210.927 18.4591 210.282 18.136 209.637 17.6661C208.992 17.1962 208.493 16.4913 208.142 15.5514C207.775 14.6116 207.599 13.4662 207.599 12.1152V12.1298ZM209.564 11.3809H217.495C217.495 11.0725 217.451 10.7201 217.378 10.353C217.305 9.97115 217.158 9.48655 216.923 8.88446C216.704 8.28238 216.293 7.78309 215.707 7.3866C215.12 6.9901 214.387 6.78451 213.522 6.78451C212.173 6.78451 211.206 7.13695 210.59 7.82715C209.989 8.53203 209.637 9.70682 209.549 11.3662L209.564 11.3809Z"
          fill="#F15B27"/>
    <path fill-rule="evenodd" clip-rule="evenodd"
          d="M222.876 18.7381V6.24113C224.621 5.37472 226.424 4.94885 228.301 4.94885C229.781 4.94885 230.969 5.31598 231.878 6.06491C233.622 5.31598 235.294 4.94885 236.907 4.94885C238.519 4.94885 239.824 5.37472 240.733 6.24113C241.642 7.10755 242.097 8.3264 242.097 9.89769V18.7381H240.132V9.89769C240.132 9.51588 240.103 9.17813 240.029 8.88443C239.956 8.59073 239.809 8.26766 239.604 7.9299C239.384 7.59215 239.047 7.3425 238.563 7.1516C238.079 6.97538 237.493 6.87259 236.789 6.87259C235.646 6.87259 234.399 7.09286 233.051 7.54809C233.344 8.20892 233.491 8.98722 233.491 9.88301V18.7234H231.526V9.89769C231.526 9.5012 231.482 9.14876 231.409 8.85506C231.335 8.56136 231.189 8.25297 230.969 7.91522C230.749 7.59215 230.397 7.32782 229.899 7.1516C229.4 6.97538 228.799 6.87259 228.081 6.87259C226.981 6.87259 225.911 7.03412 224.855 7.35719V18.7087H222.891"
          fill="#F15B27"/>
    <path fill-rule="evenodd" clip-rule="evenodd"
          d="M246.246 0.616821H248.415V2.7902H246.246V0.616821ZM246.348 18.7381H248.313V5.18385H246.348V18.7381Z"
          fill="#F15B27"/>
    <path fill-rule="evenodd" clip-rule="evenodd"
          d="M251.934 12.1298V11.9243C251.934 7.26912 253.913 4.9342 257.857 4.9342C258.678 4.9342 259.426 5.06637 260.1 5.3307C260.775 5.59503 261.302 5.90341 261.698 6.25585C262.094 6.60829 262.446 7.07821 262.739 7.63624C263.032 8.20896 263.252 8.69356 263.384 9.09005C263.516 9.48655 263.604 9.97115 263.678 10.5292C263.751 11.0725 263.78 11.425 263.78 11.5571V12.1445L263.722 13.0991H253.884C254.001 14.4648 254.426 15.4487 255.13 16.0654C255.834 16.6822 256.889 16.9906 258.282 16.9906C260.247 16.9906 261.786 16.6528 262.915 15.9773V17.9892C261.61 18.6206 260.027 18.929 258.18 18.929H258.106C257.315 18.929 256.582 18.8409 255.922 18.65C255.262 18.4591 254.617 18.136 253.972 17.6661C253.327 17.1962 252.828 16.4913 252.477 15.5514C252.11 14.6116 251.934 13.4662 251.934 12.1152V12.1298ZM253.899 11.3809H261.83C261.83 11.0725 261.786 10.7201 261.713 10.353C261.64 9.97115 261.493 9.48655 261.258 8.88446C261.039 8.28238 260.628 7.78309 260.042 7.3866C259.455 6.9901 258.722 6.78451 257.857 6.78451C256.508 6.78451 255.541 7.13695 254.925 7.82715C254.324 8.53203 253.972 9.70682 253.884 11.3662L253.899 11.3809Z"
          fill="#F15B27"/>
    <path fill-rule="evenodd" clip-rule="evenodd" d="M233.314 24.891H234.106V30.9853H233.314V24.891Z" fill="#B4B4B4"/>
    <path fill-rule="evenodd" clip-rule="evenodd"
          d="M240.616 28.3126C240.572 27.4609 240.513 26.433 240.528 25.684H240.499C240.293 26.4036 240.044 27.1525 239.736 28.0043L238.666 30.9706H238.065L237.083 28.063C236.789 27.1966 236.555 26.4183 236.379 25.6987H236.364C236.349 26.4623 236.306 27.4756 236.247 28.4008L236.086 31.0147H235.338L235.763 24.9204H236.76L237.801 27.8721C238.05 28.621 238.255 29.2965 238.417 29.928H238.446C238.593 29.3112 238.813 28.6357 239.091 27.8721L240.176 24.9204H241.173L241.554 31.0147H240.792L240.645 28.342"
          fill="#B4B4B4"/>
    <path fill-rule="evenodd" clip-rule="evenodd"
          d="M244.662 31V24.9058H245.527L247.477 27.9896C247.932 28.7092 248.283 29.3406 248.577 29.9721H248.591C248.518 29.1497 248.503 28.4008 248.503 27.461V24.9058H249.251V31H248.459L246.524 27.9015C246.099 27.226 245.688 26.5211 245.38 25.8603H245.351C245.395 26.6386 245.41 27.3728 245.41 28.3861V31H244.662Z"
          fill="#B4B4B4"/>
    <path fill-rule="evenodd" clip-rule="evenodd"
          d="M253.767 28.1365H251.406V30.3392H254.045V31H250.615V24.9058H253.899V25.5666H251.392V27.4903H253.752V28.1365"
          fill="#B4B4B4"/>
    <path fill-rule="evenodd" clip-rule="evenodd"
          d="M256.361 25.5665H254.514V24.891H259.03V25.5665H257.168V30.9999H256.376V25.5665" fill="#B4B4B4"/>
    <path fill-rule="evenodd" clip-rule="evenodd"
          d="M259.279 30.53L262.666 25.5812V25.5518H259.573V24.891H263.678V25.3756L260.32 30.3097V30.3391H263.722V30.9999H259.279V30.5447"
          fill="#B4B4B4"/>
    <path d="M133.649 22.1156H264M0.27832 22.1156H120.835" stroke="#E6E6E5"/>
</svg>